C:\GBW_MyPrograms\KinderuniversiteitApp\Resultaten\Ellis_v10102025\Volwassenen\Volwassenen_v1.mot
version=1
nRows=6
nColumns=29
inDegrees=yes
endheader
                time	         pelvis_tilt	           pelvis_tx	           pelvis_ty	       hip_flexion_l	       hip_flexion_r	        knee_angle_l	        knee_angle_r	       ankle_angle_l	       ankle_angle_r	    lumbar_extension	hamstrings_r/activation	bifemsh_r/activation	glut_max_r/activation	iliopsoas_r/activation	rect_fem_r/activation	  vasti_r/activation	gastroc_r/activation	 soleus_r/activation	tib_ant_r/activation	hamstrings_l/activation	bifemsh_l/activation	glut_max_l/activation	iliopsoas_l/activation	rect_fem_l/activation	  vasti_l/activation	gastroc_l/activation	 soleus_l/activation	tib_ant_l/activation	
          1.30714382	         -5.60791376	          1.39785508	          0.92679202	         25.01093974	         -7.21856821	        -11.16153420	        -31.99963228	          4.59135921	         -8.36549250	        -15.70124895	          0.70453235	          0.85298721	          0.38754503	          0.93984010	          0.27080463	          0.31795191	          0.52549982	          0.11161289	          0.60311319	          0.56400264	          0.29416367	          0.87736549	          0.25812180	          0.73130830	          0.94992628	          0.07679248	          0.72213344	          0.59119058	
          1.32021526	         -5.70767227	          1.41594997	          0.92940009	         24.39737483	         -6.97235221	        -11.91982969	        -32.13364236	          4.80963141	         -6.91664657	        -15.32095503	          0.58513969	          0.70196198	          0.32053701	          0.87717084	          0.22306384	          0.43110884	          0.43187761	          0.09185389	          0.68130417	          0.53489082	          0.24695607	          0.93379755	          0.21258849	          0.60474541	          0.97104523	          0.16803637	          0.84911757	          0.48643412	
          1.33328670	         -5.96647083	          1.43440491	          0.93190176	         23.87627423	         -6.39638586	        -12.60324303	        -32.21561936	          5.10631760	         -4.45105246	        -14.60051219	          0.77205580	          0.83930360	          0.26393954	          0.93093381	          0.18456529	          0.35423675	          0.35487680	          0.07542559	          0.82961390	          0.44220158	          0.20930601	          0.96366216	          0.17557459	          0.52535445	          0.98192346	          0.54883022	          0.91687438	          0.40026993	
          1.34635813	         -6.33324684	          1.45340760	          0.93449160	         23.34164958	         -5.46169328	        -13.13060458	        -32.13190324	          5.41851072	         -0.21372169	        -13.57723233	          0.63993615	          0.90512590	          0.21748508	          0.95735337	          0.16565258	          0.29128313	          0.29157981	          0.06195983	          0.90813130	          0.36447879	          0.18397980	          0.90878068	          0.16244515	          0.73948460	          0.98273696	          0.75415995	          0.95242714	          0.32951281	
          1.35942957	         -6.75633486	          1.47269221	          0.93727753	         22.67958409	         -3.90100419	        -13.35150197	        -32.24341272	          5.65703857	          4.97310497	        -12.32411719	          0.54848838	          0.75918689	          0.17939975	          0.96904168	          0.19932371	          0.23976455	          0.23998646	          0.05473354	          0.94811448	          0.30044389	          0.17035423	          0.74924775	          0.26795866	          0.85117235	          0.97922633	          0.86420231	          0.97071109	          0.27136755	
          1.37250101	         -7.19686107	          1.49185033	          0.94025538	         21.83805550	         -1.59692267	        -13.19027812	        -32.97408808	          5.76531667	          9.74800445	        -11.00100743	          0.71860728	          0.86626214	          0.14796085	          0.97749962	          0.17493425	          0.19712867	          0.19889866	          0.05148846	          0.96413825	          0.24773272	          0.17385015	          0.61696240	          0.60471936	          0.91138134	          0.96963181	          0.92283349	          0.97955479	          0.22364006	
